<svg width="79" height="79" viewBox="0 0 79 79" fill="none" xmlns="http://www.w3.org/2000/svg">
    <path d="M71.2846 16.9992C64.2484 6.73411 52.4362 0 39.0511 0C17.4838 0 0 17.4838 0 39.0511C0 42.1888 0.370074 45.2401 1.06892 48.1637L20.9553 28.2774C22.8616 26.3711 25.9523 26.3711 27.8586 28.2774L43.9325 44.3513L71.2846 16.9992Z"
          fill="#68B0AB"/>
    <path d="M75.926 26.1645L47.3842 54.7063C45.4779 56.6126 42.3872 56.6126 40.4809 54.7063L24.407 38.6324L4.94813 58.0912C11.6284 70.0308 24.3972 78.1023 39.0511 78.1023C60.6185 78.1023 78.1023 60.6185 78.1023 39.0511C78.1023 34.5356 77.3358 30.199 75.926 26.1645Z"
          fill="#68B0AB"/>
</svg>
