<svg width="360" height="79" viewBox="0 0 360 79" fill="none" xmlns="http://www.w3.org/2000/svg">
    <path d="M71.2846 16.9992C64.2484 6.73411 52.4362 0 39.0511 0C17.4838 0 0 17.4838 0 39.0511C0 42.1888 0.370074 45.2401 1.06892 48.1637L20.9553 28.2774C22.8616 26.3711 25.9523 26.3711 27.8586 28.2774L43.9325 44.3513L71.2846 16.9992Z"
          fill="#68B0AB"/>
    <path d="M75.926 26.1645L47.3842 54.7063C45.4779 56.6126 42.3872 56.6126 40.4809 54.7063L24.407 38.6324L4.94813 58.0912C11.6284 70.0308 24.3972 78.1023 39.0511 78.1023C60.6185 78.1023 78.1023 60.6185 78.1023 39.0511C78.1023 34.5356 77.3358 30.199 75.926 26.1645Z"
          fill="#68B0AB"/>
    <path d="M122.637 48.9232H112.472L110.696 54.6716H102.771L114.057 23.901H121.031L132.401 54.6716H124.433L122.637 48.9232ZM114.247 43.196H120.862L117.544 32.5235L114.247 43.196Z"
          fill="white"/>
    <path d="M160.36 54.6716H152.985L142.08 35.5245V54.6716H134.662V23.901H142.08L152.964 43.0481V23.901H160.36V54.6716Z"
          fill="white"/>
    <path d="M182.91 48.9232H172.745L170.969 54.6716H163.044L174.33 23.901H181.304L192.674 54.6716H184.706L182.91 48.9232ZM174.52 43.196H181.135L177.817 32.5235L174.52 43.196Z"
          fill="white"/>
    <path d="M202.353 48.9655H215.266V54.6716H194.935V23.901H202.353V48.9655Z" fill="white"/>
    <path d="M223.74 37.2575L229.404 23.901H237.414L227.502 43.6187V54.6716H219.978V43.6187L210.088 23.901H218.055L223.74 37.2575Z"
          fill="white"/>
    <path d="M264.19 29.6282H254.954V54.6716H247.537V29.6282H238.47V23.901H264.19V29.6282Z" fill="white"/>
    <path d="M275.243 54.6716H267.846V23.901H275.243V54.6716Z" fill="white"/>
    <path d="M305.295 44.2527C305.196 46.3942 304.618 48.2892 303.562 49.9376C302.505 51.572 301.019 52.84 299.103 53.7417C297.201 54.6434 295.024 55.0943 292.572 55.0943C288.529 55.0943 285.345 53.7769 283.02 51.1423C280.695 48.5076 279.533 44.7881 279.533 39.9837V38.4621C279.533 35.447 280.054 32.8124 281.097 30.5581C282.153 28.2898 283.668 26.5427 285.64 25.317C287.613 24.0771 289.895 23.4572 292.488 23.4572C296.221 23.4572 299.222 24.4434 301.491 26.4159C303.759 28.3743 305.048 31.0794 305.358 34.5312H297.961C297.905 32.6574 297.433 31.3119 296.545 30.4947C295.658 29.6775 294.305 29.269 292.488 29.269C290.642 29.269 289.29 29.9593 288.43 31.3401C287.571 32.7208 287.12 34.9257 287.078 37.9549V40.1316C287.078 43.4144 287.486 45.7602 288.303 47.1691C289.135 48.5781 290.558 49.2825 292.572 49.2825C294.277 49.2825 295.58 48.881 296.482 48.0779C297.384 47.2748 297.863 45.9997 297.919 44.2527H305.295Z"
          fill="white"/>
    <path d="M324.674 46.4929C324.674 45.408 324.287 44.5627 323.512 43.9568C322.751 43.351 321.406 42.724 319.475 42.0759C317.545 41.4278 315.967 40.8009 314.741 40.195C310.754 38.2367 308.761 35.5456 308.761 32.122C308.761 30.4172 309.254 28.9167 310.24 27.6205C311.24 26.3103 312.649 25.2958 314.467 24.5773C316.284 23.8447 318.327 23.4783 320.596 23.4783C322.807 23.4783 324.787 23.8728 326.534 24.6618C328.295 25.4508 329.662 26.5779 330.634 28.0432C331.606 29.4944 332.092 31.1569 332.092 33.0307H324.695C324.695 31.7768 324.308 30.8047 323.533 30.1143C322.772 29.4239 321.737 29.0788 320.426 29.0788C319.102 29.0788 318.052 29.3746 317.278 29.9664C316.517 30.544 316.136 31.2837 316.136 32.1854C316.136 32.9744 316.559 33.6929 317.404 34.341C318.25 34.975 319.736 35.6372 321.864 36.3276C323.991 37.0039 325.738 37.7365 327.105 38.5255C330.43 40.4416 332.092 43.0833 332.092 46.4506C332.092 49.1416 331.078 51.255 329.049 52.7907C327.02 54.3264 324.238 55.0943 320.701 55.0943C318.207 55.0943 315.946 54.6504 313.917 53.7628C311.903 52.8611 310.381 51.6354 309.352 50.0856C308.338 48.5217 307.831 46.7253 307.831 44.6965H315.27C315.27 46.3449 315.693 47.5636 316.538 48.3526C317.397 49.1275 318.785 49.515 320.701 49.515C321.927 49.515 322.892 49.2543 323.596 48.733C324.315 48.1976 324.674 47.4509 324.674 46.4929Z"
          fill="white"/>
</svg>
